<?xml version="1.0" encoding="UTF-8"?><svg id="Ebene_1" xmlns="http://www.w3.org/2000/svg" width="491.15" height="383.11" viewBox="0 0 491.15 383.11"><g id="cXowZG.tif"><path d="m0,234.49v-15.71c.24.02.47.04.52.05.33-3.76.5-7.54,1.03-11.27.56-3.95,1.34-7.88,2.23-11.77.97-4.24,1.96-8.5,3.35-12.6,1.7-5.03,3.69-9.97,5.82-14.84,7.21-16.45,16.94-31.25,29.42-44.21,10.36-10.75,22.2-19.57,35.12-27.03,6.83-3.94,13.96-7.25,21.26-10.16,4.47-1.79,9.15-3.08,13.8-4.36,4.55-1.25,9.18-2.23,13.78-3.3,1.47-.34,2.97-.61,4.63-.96-.35-.38-.48-.54-.62-.68-6.09-6.13-12.22-12.23-18.26-18.41-3.85-3.93-7.2-8.26-9.73-13.18-2.4-4.67-4.1-9.61-4.49-14.84-.39-5.27.56-10.39,3.06-15.13C105.94,6.54,114.06,1.41,124.62.16c4-.47,8.05.12,11.9,1.45,5.87,2.03,11.36,4.79,16.05,8.93.59.52.99.53,1.58.04,3.69-3.07,7.78-5.48,12.14-7.49,3.27-1.51,6.64-2.66,10.22-2.96,4.83-.4,9.54.4,14.06,2.13,11.31,4.33,17.04,13.65,17.97,24.09.44,4.92-.14,9.81-1.84,14.51-2.19,6.06-5.54,11.44-9.97,16.06-6.46,6.76-13.13,13.32-19.73,19.95-.29.29-.69.47-1.23.82.81.35,1.2.6,1.62.68,3.91.73,7.89,1.16,11.71,2.2,5.99,1.62,11.92,3.49,17.78,5.54,4.44,1.55,8.79,3.39,13.06,5.37,8.72,4.04,16.85,9.09,24.53,14.88.65.49,1.12.73,1.93.15,8.37-6.07,17.04-11.67,26.49-15.94,4.18-1.89,8.36-3.83,12.68-5.34,4.7-1.64,9.53-2.89,14.35-4.13,3.75-.97,7.58-1.66,11.38-2.45,1.16-.24,2.32-.44,3.67-.68-.36-.39-.55-.6-.76-.8-3.91-3.91-7.83-7.81-11.72-11.73-4.53-4.57-9.26-8.96-12.91-14.33-4.13-6.07-6.81-12.67-7.39-20-.31-3.94.14-7.85,1.47-11.62,3.39-9.57,10.26-15.43,19.78-18.33,3.38-1.03,6.88-1.44,10.42-.78,2.48.46,5.04.67,7.4,1.46,5.7,1.92,10.95,4.73,15.53,8.7.61.53,1.04.56,1.7.04,1.56-1.24,3.13-2.48,4.81-3.53,7.18-4.51,14.66-7.95,23.53-6.7,3.5.49,6.96,1.15,10.08,2.76,9.56,4.94,15.02,12.81,15.99,23.57.42,4.69-.28,9.29-1.86,13.75-1.82,5.14-4.38,9.88-7.95,13.97-3.77,4.31-7.8,8.4-11.8,12.51-3.68,3.78-7.47,7.44-11.34,11.29.41.21.67.41.96.47,4.11.82,8.25,1.48,12.31,2.47,4.1,1,8.17,2.18,12.15,3.57,5.34,1.87,10.64,3.87,15.85,6.1,13.55,5.79,25.59,14.01,36.82,23.43,9.4,7.88,17.54,16.94,24.63,26.99,10.57,14.99,18.53,31.17,23.1,48.96,1.43,5.58,2.96,11.14,3.51,16.92.36,3.82,1.07,7.61,1.44,11.43.3,3.16.47,6.35.42,9.52-.08,4.74-.35,9.48-.66,14.22-.21,3.17-.51,6.36-1.01,9.5-.6,3.74-1.36,7.47-2.22,11.16-.99,4.23-1.98,8.47-3.31,12.59-1.59,4.93-3.37,9.81-5.35,14.6-6.66,16.08-16.28,30.27-28.08,43.01-9.18,9.91-19.34,18.71-30.92,25.75-14.49,8.82-29.87,15.55-46.4,19.52-3.64.88-7.32,1.63-11.02,2.23-3.82.63-7.68.99-11.51,1.51-1.38.19-2.75.48-4.12.73-.81-.16-1.61-.38-2.43-.48-.77-.1-1.55-.08-2.33-.11-1.29-.07-2.58-.14-3.88-.2v.34c1.3.06,2.61.12,3.92.19.49.17.99.35,1.48.52h-11.23c.07-.23.14-.47.22-.74h-3.79c.03.27.06.5.08.74h-3.49c.01-.5-.06-.83-.73-.83-1.35,0-2.71-.03-4.05-.18-3.41-.38-6.85-.64-10.22-1.29-4.7-.91-9.39-1.93-13.98-3.25-4.62-1.33-9.17-2.93-13.64-4.68-4.62-1.81-9.16-3.84-13.63-6-7.83-3.77-15.15-8.39-22.04-13.7-.57-.44-.98-.65-1.72-.12-6.07,4.35-12.36,8.36-19.02,11.76-5.93,3.03-12.01,5.72-18.35,7.79-5.11,1.68-10.23,3.39-15.44,4.71-4.98,1.26-10.07,2.1-15.13,3.02-2.92.53-5.87.95-8.83,1.24-3.2.31-6.42.39-9.63.58-4.33,0-8.66-.01-13-.02-1.73-.09-3.47-.11-5.18-.29-3.71-.39-7.44-.74-11.12-1.34-4.67-.76-9.37-1.48-13.92-2.72-6.34-1.73-12.65-3.68-18.81-5.98-19.21-7.16-36.29-17.81-50.97-32.17-15.61-15.27-27.29-33.13-34.8-53.65-1.5-4.09-2.84-8.25-4.04-12.44-1.11-3.88-1.99-7.83-2.83-11.77-.72-3.4-1.22-6.84-1.85-10.26-.72-3.96-1.23-7.94-1.17-11.98.01-1.08-.05-2.15-.08-3.23,0-1.75,0-3.5,0-5.25-.21.95-.27,1.92-.41,2.88-.03.2-.33.37-.51.55Zm213.63,85.94c-.03-.27-.02-.32-.04-.35-.2-.27-.41-.52-.6-.79-9.58-13.26-17.1-27.56-21.71-43.29-1.6-5.45-2.95-10.99-4.13-16.55-.98-4.61-1.67-9.29-2.22-13.97-.44-3.74-.56-7.52-.7-11.29-.12-3.15-.21-6.31-.06-9.46.19-3.8.62-7.59,1-11.37.28-2.79.5-5.6,1.01-8.35.76-4.14,1.62-8.28,2.69-12.35,1.28-4.88,2.68-9.74,4.3-14.52,4.05-11.86,9.82-22.89,16.66-33.37,1.02-1.56,2.12-3.07,3.16-4.62.42-.62.69-1.21-.22-1.74-2.9-1.7-5.66-3.65-8.66-5.13-4.51-2.23-9.08-4.41-13.81-6.11-4.96-1.78-10.09-3.14-15.23-4.32-3.42-.78-6.98-.97-10.5-1.31-3.43-.33-6.87-.56-10.31-.74-1.34-.07-2.7.13-4.05.23-3.44.25-6.91.29-10.31.82-5.05.8-10.14,1.6-15.02,3.06-5.56,1.66-10.99,3.84-16.31,6.16-9.28,4.05-17.79,9.37-25.53,15.98-10.61,9.07-19.36,19.57-25.81,31.96-3.78,7.26-6.92,14.76-9.01,22.68-.78,2.94-1.51,5.9-2.01,8.9-.51,3.03-.78,6.1-1.04,9.16-.35,4.16-.99,8.3-.52,12.5.31,2.77.28,5.59.55,8.36.32,3.3.61,6.62,1.27,9.85,1.15,5.62,2.62,11.17,4.69,16.55,4.53,11.78,10.52,22.68,18.86,32.24,6.88,7.9,14.35,15.1,23.31,20.67,7.69,4.78,15.53,9.24,24.14,12.16,3.77,1.28,7.53,2.63,11.39,3.56,3.94.94,7.98,1.51,12,2.05,3.09.41,6.22.73,9.32.7,5.19-.06,10.38-.38,15.56-.71,2.52-.16,5.08-.38,7.54-.95,4.77-1.1,9.5-2.43,14.22-3.74,6.73-1.87,12.98-4.85,19.04-8.27,2.44-1.38,4.8-2.9,7.11-4.31Zm63.74.13c1.04.65,2.02,1.26,3,1.88,9.5,5.98,19.74,10.24,30.6,12.99,3.11.79,6.29,1.34,9.47,1.75,4.3.55,8.63,1.09,12.95,1.21,4.4.12,8.82-.34,13.23-.41,4.93-.08,9.72-1.13,14.49-2.13,4.1-.85,8.17-2.04,12.1-3.5,4.75-1.76,9.47-3.71,13.98-6.03,16.27-8.37,29.5-20.28,39.88-35.3,6.83-9.89,11.91-20.65,14.81-32.34,1.1-4.45,2.02-8.96,2.68-13.49.66-4.49,1.02-9.03,1.28-13.56.15-2.54-.22-5.11-.22-7.67-.01-4.6-.62-9.13-1.54-13.6-.89-4.35-1.76-8.73-3.08-12.96-4.89-15.71-12.91-29.66-24.17-41.71-12.44-13.31-27.32-22.9-44.52-28.89-5.29-1.84-10.67-3.37-16.27-4.03-4.87-.57-9.74-1.39-14.63-1.66-4.41-.24-8.86,0-13.28.23-3.01.15-6.06.37-9,1-5.22,1.12-10.43,2.36-15.52,3.94-9.15,2.84-17.63,7.16-25.65,12.4-.6.39-.63.62-.23,1.23,3.61,5.56,7.41,11.02,10.69,16.77,6.08,10.65,10.52,22,13.47,33.92.73,2.94,1.47,5.89,2.08,8.86.63,3.06,1.2,6.14,1.63,9.24.44,3.11.79,6.24.97,9.38.24,4.38.51,8.78.35,13.15-.19,5.07-.73,10.14-1.33,15.18-.53,4.43-1.23,8.84-2.06,13.22-.62,3.23-1.48,6.42-2.4,9.58-1.52,5.22-2.97,10.47-4.82,15.58-4.61,12.74-11.22,24.44-18.95,35.78Zm-21.68,24.58c3.66,2.27,7.22,4.64,10.93,6.75,3.7,2.1,7.47,4.15,11.37,5.84,5.78,2.49,11.65,4.8,17.59,6.87,3.7,1.28,7.59,2.01,11.41,2.92,5.89,1.41,11.86,2.39,17.9,2.85,3.44.26,6.9.41,10.35.4,4.51-.02,9.04-.09,13.53-.46,4.22-.34,8.42-1,12.6-1.68,3.66-.6,7.32-1.29,10.93-2.18,3.27-.81,6.53-1.78,9.68-2.97,5.91-2.24,11.89-4.36,17.57-7.1,21.74-10.51,39.6-25.74,53.62-45.37,10.18-14.27,17.2-30.05,21.61-46.99,1.25-4.8,2.31-9.64,2.76-14.6.43-4.64,1.2-9.26,1.4-13.9.21-4.75,0-9.53-.21-14.28-.17-3.79-.5-7.59-1-11.36-.55-4.15-1.22-8.29-2.13-12.37-1.49-6.73-3.59-13.29-6.19-19.69-6.11-14.98-14.19-28.69-25-40.84-9.51-10.69-20.4-19.64-32.51-27.1-7.89-4.86-16.2-9.02-25.03-12.02-4.51-1.53-9-3.14-13.58-4.45-6.27-1.8-12.69-2.88-19.19-3.53-3.87-.38-7.72-1.11-11.59-1.18-7.11-.12-14.25-.55-21.35.43-4.12.57-8.28.94-12.33,1.81-6.52,1.4-12.98,3.08-19.26,5.41-6.45,2.4-12.7,5.23-18.8,8.43-12.02,6.32-22.52,14.7-32.21,24.08-6.78,6.56-12.98,13.64-18.12,21.64-6.24,9.72-11.48,19.92-15.45,30.76-1.3,3.55-2.36,7.2-3.39,10.84-.8,2.83-1.43,5.71-2.03,8.59-.57,2.74-1.05,5.5-1.46,8.26-.28,1.9-.39,3.82-.56,5.74-.33,3.72-.84,7.43-.92,11.15-.14,6.31-.24,12.63.68,18.92.37,2.55.32,5.16.82,7.68,1,5.13,2.15,10.23,3.41,15.31,1.46,5.92,3.55,11.64,6.01,17.23,4.04,9.2,8.61,18.11,14.52,26.28.45.63.94,1.23,1.44,1.89,4.64-3.7,8.84-7.64,12.48-12.15.75-.92,1.97-1.87,2.01-2.85.04-1-1.1-2.05-1.76-3.05-5.48-8.33-9.97-17.17-13.13-26.61-1.74-5.2-2.88-10.61-4.1-15.96-1.19-5.23-1.72-10.56-1.95-15.92-.3-7.07-.14-14.12.77-21.14.46-3.59,1.16-7.15,1.95-10.68.96-4.31,1.87-8.65,3.23-12.84,5.19-15.98,13.44-30.21,24.62-42.8,9.3-10.48,20.3-18.73,32.5-25.42,4.2-2.3,8.7-4.05,13.1-5.99,5.22-2.29,10.74-3.75,16.25-5.1,3.9-.95,7.94-1.33,11.89-2.08,4.63-.88,9.31-1.08,13.99-1.18,6.14-.13,12.28.11,18.34,1.22,5.14.94,10.31,1.83,15.36,3.13,4.29,1.1,8.49,2.65,12.66,4.19,8.12,2.99,15.78,6.9,22.87,11.89,8.31,5.84,16.15,12.18,22.9,19.87,11.84,13.48,20.53,28.68,25.85,45.8,1.89,6.09,3.09,12.34,3.98,18.65.47,3.37.83,6.78.95,10.17.15,4.22.23,8.47-.06,12.67-.28,4.14-.91,8.27-1.67,12.35-.91,4.85-1.95,9.69-3.27,14.44-1.11,4.01-2.57,7.95-4.12,11.82-3.25,8.16-7.64,15.75-12.63,22.92-4.61,6.62-9.86,12.77-15.77,18.28-9.37,8.74-19.65,16.17-31.39,21.5-6.1,2.77-12.24,5.45-18.74,7.07-5.75,1.44-11.6,2.46-17.42,3.63-4.86.98-9.8,1.12-14.72,1.18-3.95.05-7.92-.21-11.87-.49-3.05-.21-6.11-.48-9.11-1.04-3.86-.72-7.7-1.63-11.49-2.7-4.32-1.22-8.67-2.44-12.82-4.12-4.82-1.95-9.49-4.31-14.13-6.68-3.01-1.53-5.86-3.39-8.65-5.02-4.91,5.02-9.75,9.96-14.73,15.05Zm12.08-199.09c-5.01,4.26-9.47,8.7-13.56,13.53q-1.38,1.63-.2,3.38c7.9,11.57,13.44,24.19,16.65,37.8,1.09,4.61,1.85,9.3,2.49,13.99.53,3.81.82,7.67.94,11.52.2,6.37-.34,12.72-1.39,19.01-.67,3.99-.99,8.06-1.98,11.97-1.49,5.92-3.19,11.81-5.22,17.56-3.45,9.81-8.8,18.67-14.89,27.03-7.9,10.83-17.65,19.8-28.62,27.5-10.3,7.23-21.47,12.63-33.47,16.32-6.27,1.93-12.67,3.28-19.21,4.1-4.86.61-9.7,1.14-14.59,1.14-2.49,0-4.99.15-7.46,0-2.89-.19-5.77-.62-8.65-.98-2.5-.31-5.05-.48-7.49-1.05-4.15-.98-8.27-2.15-12.36-3.37-12.53-3.76-24.09-9.59-34.87-16.91-14.7-9.99-26.29-22.93-35.25-38.24-5.27-8.99-9.62-18.38-12.09-28.56-1-4.11-2.1-8.2-2.8-12.36-.68-4.07-1.07-8.2-1.31-12.32-.51-8.64-.41-17.29,1.28-25.81,1.09-5.47,2.25-10.95,3.81-16.3,2.94-10.12,7.54-19.53,13.14-28.44,8.89-14.15,20.18-26.07,34.04-35.4,13.3-8.96,27.74-15.47,43.5-18.8,3.88-.82,7.81-1.43,11.74-2.01,2.51-.37,5.04-.68,7.57-.72,4.42-.06,8.85.07,13.28.22,2.54.09,5.1.24,7.61.6,3.44.5,6.88,1.07,10.25,1.9,5.01,1.24,10.03,2.53,14.92,4.16,9.48,3.17,18.3,7.73,26.6,13.28.8.54,1.17.4,1.83-.28,3.92-4.06,7.92-8.05,11.9-12.05.63-.63,1.29-1.22,2-1.89-.73-.52-1.27-.9-1.8-1.29-13.49-9.78-28.4-16.56-44.5-20.72-3.7-.96-7.54-1.39-11.27-2.23-5.6-1.26-11.26-1.72-16.97-1.72-.53,0-1.05-.12-1.58-.18-2.36-.27-4.71-.68-7.07-.78-4.7-.2-9.39.04-14.06.69-2.8.39-5.65.53-8.42,1.07-3.8.74-7.57,1.65-11.31,2.65-4.08,1.09-8.17,2.19-12.14,3.61-15.16,5.46-29.24,12.88-41.86,23-9.62,7.71-18.35,16.26-25.58,26.25-8.09,11.18-14.63,23.23-19.29,36.24-1.21,3.39-2.32,6.83-3.3,10.3-1.35,4.83-2.3,9.73-3.12,14.69-.83,5.02-1.41,10.07-1.58,15.12-.18,5.27.15,10.57.47,15.84.22,3.74.68,7.48,1.23,11.2.64,4.35,1.33,8.71,2.31,12.99,1.41,6.14,3.24,12.18,5.46,18.08,4.15,11.05,9.34,21.57,15.98,31.36,6.52,9.6,14.52,17.84,23.17,25.47,6.31,5.56,13.29,10.19,20.63,14.3,8.08,4.53,16.43,8.42,25.26,11.24,4.63,1.48,9.19,3.13,14.02,3.92,4.15.68,8.26,1.61,12.43,2.16,4.46.59,8.96,1.06,13.45,1.24,5.31.21,10.65.24,15.95,0,4.15-.19,8.29-.84,12.41-1.45,4.15-.62,8.34-1.22,12.4-2.25,5.35-1.36,10.66-2.93,15.86-4.76,12.29-4.34,23.9-10.12,34.42-17.84,4.47-3.28,8.59-7.09,12.52-11.02,5.81-5.81,11.65-11.66,16.83-18.02,5.55-6.82,9.58-14.71,13.34-22.67,4.82-10.19,8.43-20.82,10.92-31.8.97-4.27,1.67-8.62,2.24-12.97.58-4.5,1.03-9.04,1.21-13.57.17-4.21.03-8.45-.21-12.67-.25-4.24-.69-8.47-1.24-12.68-.48-3.6-1.09-7.21-1.92-10.74-.83-3.54-1.9-7.04-3.05-10.49-1.52-4.56-2.96-9.18-4.93-13.55-2.52-5.57-5.4-11-8.37-16.34-2.13-3.83-4.67-7.43-7.07-11.2Zm69.52-70.15h0c2.33.01,4.66.03,6.98,0,.4,0,.91-.17,1.19-.44,7.41-7.34,14.82-14.68,22.19-22.07,1.99-2,3.96-4.04,5.78-6.19,4.91-5.79,7.87-12.35,7.55-20.11-.15-3.48-1.29-6.62-3.62-9.23-2.96-3.31-6.52-5.53-11.07-6.07-3.05-.37-6.16-.6-8.94.62-3.62,1.58-7.09,3.56-10.44,5.67-2.05,1.29-3.73,3.15-5.63,4.71-2.45,2.01-5.42,2.27-8.06-.22-.39-.37-.81-.72-1.19-1.1-3.57-3.56-7.78-6.17-12.33-8.28-3.95-1.82-8.11-2.16-12.27-1.32-7.83,1.58-14.48,8.39-13.54,18.03.35,3.62,1.34,7.03,2.87,10.28,2.35,4.96,6.07,8.88,9.89,12.71,7.42,7.44,14.85,14.88,22.31,22.29.41.41,1.12.68,1.71.7,2.2.08,4.41.03,6.61.03Zm-184.35.74s0,0,0,.01c2,0,3.99-.05,5.99.02,1.05.04,1.82-.29,2.54-1.02,3.74-3.78,7.56-7.49,11.27-11.3,5.51-5.65,11.15-11.19,16.37-17.11,5.27-5.98,8.18-13.02,6.99-21.21-.5-3.47-1.99-6.55-4.64-8.96-3.24-2.94-6.98-4.51-11.43-4.86-2.71-.21-5.37-.05-7.68.98-3.52,1.57-6.82,3.71-10.07,5.82-1.62,1.05-2.97,2.53-4.36,3.9-2.52,2.48-5.66,3.01-8.52.28-.81-.77-1.63-1.54-2.47-2.28-6.14-5.38-12.93-8.88-21.47-8.7-6.62.14-14.86,5.53-15.64,15.31-.3,3.74.49,7.38,1.89,10.85,1.98,4.91,5.04,9.09,8.79,12.82,8.27,8.24,16.47,16.56,24.73,24.82.35.35.98.58,1.49.6,2.08.07,4.16.03,6.23.03Zm92.58,94.83c-14.08,23.28-19.23,48.22-15.67,74.9,2.01,15.06,7.6,28.85,15.63,41.89.66-1.2,1.15-2.19,1.73-3.14,4.7-7.81,7.9-16.25,10.42-24.95,1.44-4.98,2.73-10.01,3.14-15.23.27-3.45,1.09-6.88,1.14-10.33.08-5.74-.09-11.49-.48-17.21-.26-3.73-1.13-7.41-1.68-11.12-.72-4.85-2.36-9.43-4.03-14-2.63-7.21-5.84-14.15-10.19-20.81Z" fill="#fff"/><path d="m158.69,382.16l.24.94h-13.22c0-.32,0-.64,0-.96,4.33,0,8.66.01,13,.02Z" fill="#fff"/><path d="m328.58,383.11c-.03-.23-.05-.47-.08-.74h3.79c-.08.27-.15.5-.22.74h-3.49Z" fill="#fff"/><path d="m346.54,382.85c0,.09,0,.17.01.26h-3.24c-.49-.17-.99-.35-1.48-.52-.01-.11-.03-.21-.04-.32.78.03,1.56.01,2.33.11.82.1,1.62.31,2.43.48Z" fill="#fff"/><path d="m.91,236.31c-.15-.04-.29-.07-.44-.11-.16-.4-.32-.81-.48-1.21,0-.17,0-.33,0-.5.18-.18.48-.35.51-.55.14-.96.2-1.93.41-2.88,0,1.75,0,3.5,0,5.25Z" fill="#fff"/><path d="m0,234.99c.16.4.32.81.48,1.21-.16.01-.32.02-.48.04,0-.42,0-.83,0-1.25Z" fill="#fff"/><path d="m0,217.04c.08.06.16.12.24.17-.08.02-.16.05-.24.07,0-.08,0-.17,0-.25Z" fill="#fff"/><path d="m0,218.04c.08.04.16.08.24.12-.08.04-.16.08-.24.12,0-.08,0-.17,0-.25Z" fill="#fff"/><path d="m0,239.98c.06,0,.13.01.19.02-.06.08-.13.15-.19.23,0-.08,0-.17,0-.25Z" fill="#fff"/><path d="m341.78,382.26c.01.11.03.21.04.32-1.31-.06-2.62-.12-3.93-.19v-.34c1.3.07,2.59.14,3.89.2Z" fill="#fff"/></g></svg>