<svg xmlns="http://www.w3.org/2000/svg" width="110" height="87.874" viewBox="0 0 110 87.874"><path fill="#FFFFFE" fill-rule="evenodd" d="M163,34.85977 C163.555263,34.7030822 164.108353,34.5584345 164.658181,34.4304254 L164.658181,32.9676439 C164.114122,33.5042619 163.560447,34.0467327 163,34.5931332 L163,34.85977 M169.157227,28.4751195 C168.611997,29.0249481 168.059911,29.5804623 167.498962,30.1424981 L167.498962,33.8897941 C168.054978,33.8064335 168.607984,33.7352802 169.157227,33.6786753 L169.157227,28.4751195 M173.65619,33.4970713 L173.65619,23.9216424 C173.110458,24.4737285 172.557787,25.0338413 171.997925,25.6012283 L171.997925,33.4967369 C172.555362,33.483359 173.107532,33.4855329 173.65619,33.4970713 M178.155152,19.4169944 C177.607832,19.9562879 177.055244,20.504946 176.496971,21.0628013 L176.496971,33.6648794 C177.055077,33.718976 177.608083,33.7841093 178.155152,33.8611154 L178.155152,19.4169944 M182.654198,15.1155221 C182.10437,15.6215383 181.551949,16.1380059 180.995933,16.6656775 L180.995933,34.3657938 C181.555712,34.4858598 182.108801,34.6158755 182.654198,34.7561754 L182.654198,15.1155221 M187.153077,11.1976589 C186.600322,11.6484079 186.047902,12.1104446 185.494896,12.5850229 L185.494896,35.5917878 C186.057266,35.7775724 186.610105,35.9722197 187.153077,36.1748938 L187.153077,11.1976589 M191.652123,7.82452397 C191.096358,8.20278196 190.543771,8.59257833 189.993858,8.99550169 L189.993858,37.3379284 C190.560576,37.591271 191.11283,37.851386 191.652123,38.1159325 L191.652123,7.82452397 M196.151086,5.09093271 C195.592729,5.38875653 195.040476,5.69920567 194.492904,6.02110958 L194.492904,39.618095 C195.06698,39.9440123 195.620571,40.2713509 196.151086,40.5974354 L196.151086,5.09093271 M200.650048,3.0182896 C200.090186,3.23718425 199.537599,3.46745006 198.991867,3.70875258 L198.991867,42.4641436 C199.589856,42.8835384 200.144952,43.2894718 200.650048,43.672412 L200.650048,3.0182896 M205.149011,46.123564 L205.149011,1.55233084 C204.58848,1.70023941 204.035641,1.85793052 203.490829,2.02607306 L203.490829,45.9938827 C204.045006,46.4860194 204.336308,46.7748968 204.336308,46.7748968 C204.336308,46.7748968 204.613396,46.5377749 205.149011,46.123564 M209.648057,0.615883108 C209.086773,0.703089803 208.534687,0.800246255 207.989792,0.905429402 L207.989792,44.0857032 C208.493132,43.7475787 209.046891,43.3862938 209.648057,43.007785 L209.648057,0.615883108 M214.147019,0.127174448 C213.586823,0.163796244 213.032814,0.206270837 212.488754,0.258695188 L212.488754,41.3094701 C213.017931,41.0090543 213.570602,40.7037055 214.147019,40.3951794 L214.147019,0.127174448 M218.645982,0.00501818634 C218.448659,0.00334595825 218.253175,0 218.053762,0 C217.694902,0 217.340139,0.00384762668 216.9878,0.00978403641 L216.9878,38.9492038 C217.525087,38.6893395 218.078009,38.4295589 218.645982,38.1710324 L218.645982,0.00501818634 M223.144693,0.210869464 C222.599631,0.164214301 222.048297,0.123411935 221.486512,0.0923084927 L221.486763,36.9442859 C222.028147,36.7230501 222.580902,36.5042391 223.144693,36.2885217 L223.144693,0.210869464 M227.64399,0.797988748 C227.100265,0.700247016 226.546423,0.613291155 225.985725,0.533191429 L225.985725,35.2636967 C226.529534,35.0793335 227.082623,34.8989001 227.64399,34.72248 L227.64399,0.797988748 M232.142869,1.85809775 C231.598141,1.69773107 231.046222,1.5461436 230.484688,1.40592727 L230.484688,33.8891252 C231.030336,33.7403805 231.583007,33.5960672 232.142869,33.456687 L232.142869,1.85809775 M236.641915,3.47614565 C236.096602,3.24236816 235.544014,3.01996182 234.98365,2.80867581 L234.98365,32.8067755 C235.530218,32.6928132 236.083391,32.5843692 236.641915,32.4808583 L236.641915,3.47614565 M241.140961,5.73925554 C240.593975,5.4230372 240.041388,5.11919336 239.482696,4.82764039 L239.482696,32.0102097 C240.030184,31.9302772 240.583106,31.8560303 241.140961,31.7873017 L241.140961,5.73925554 M245.63984,8.68087197 C245.090262,8.28054057 244.537842,7.89258365 243.981659,7.51767011 L243.981659,31.4923207 C244.529899,31.4460835 245.082737,31.4057829 245.63984,31.371335 L245.63984,8.68087197 M250.13897,31.2288611 L250.13897,12.2641223 C249.586298,11.7887079 249.033627,11.3255007 248.480956,10.8749188 L248.480956,31.2493459 C249.029446,31.2364698 249.582118,31.22953 250.13897,31.2288611 M254.638099,16.3604959 C254.082084,15.8298143 253.529412,15.310253 252.979249,14.8020629 L252.979249,31.2812855 C253.528576,31.3017703 254.082084,31.3283587 254.638099,31.3614688 L254.638099,16.3604959 M259.137229,20.78379 C258.577869,20.2221722 258.025197,19.6700025 257.478379,19.1277825 L257.478379,31.5843768 C258.028542,31.6381389 258.581213,31.6985064 259.137229,31.7651447 L259.137229,20.78379 M263.635523,25.3467988 C263.075326,24.7764018 262.522655,24.2136134 261.977509,23.659019 L261.977509,32.1597069 C262.527672,32.24683 263.080343,32.3409764 263.635523,32.4413101 L263.635523,25.3467988 M268.134652,29.9039548 C267.57362,29.3401631 267.020948,28.7829767 266.476638,28.2318939 L266.476638,33.0086971 C267.026801,33.1292647 267.579473,33.257441 268.134652,33.3916373 L268.134652,29.9039548 M272.633782,34.3601082 C272.07275,33.8132896 271.519242,33.2704844 270.975768,32.7337828 L270.975768,34.1330196 C271.525931,34.2874499 272.078602,34.4493216 272.633782,34.6175477 L272.633782,34.3601082 M192.328038,57.344967 C191.986318,57.0179628 191.526121,56.8543352 190.947697,56.8543352 L187.982001,56.8543352 L187.982001,60.6685203 L190.947697,60.6685203 C191.578545,60.6685203 192.051786,60.4997925 192.367335,60.1620024 C192.682885,59.8244632 192.840659,59.3549015 192.840659,58.7534847 C192.840659,58.1417 192.669758,57.6721384 192.328038,57.344967 Z M194.265481,60.256985 C194.086469,60.689674 193.834047,61.053718 193.507795,61.3489499 C193.18146,61.6444326 192.794673,61.8660864 192.347352,62.0136606 C191.899948,62.1615691 191.407894,62.2352308 190.871276,62.2352308 L187.982001,62.2352308 L187.982001,66.365885 L186.336027,66.365885 L186.336027,55.2875411 L190.973115,55.2875411 C191.479549,55.2875411 191.951619,55.3614536 192.389576,55.5090277 C192.827282,55.6569363 193.20462,55.875831 193.521173,56.1658789 C193.837725,56.4562613 194.085466,56.8174626 194.26498,57.2499844 C194.444326,57.682757 194.534041,58.1837566 194.534041,58.7534847 C194.534041,59.3232128 194.444577,59.8244632 194.265481,60.256985 L194.265481,60.256985 Z M196.512371,66.365885 L196.512371,55.6831903 L198.158261,54.8285981 L198.158261,66.365885 L196.512371,66.365885 M205.390899,62.8208451 C205.169328,62.704876 204.908126,62.6150774 204.60746,62.5517836 C204.306793,62.4884897 203.93489,62.456801 203.491749,62.456801 C202.963994,62.456801 202.547358,62.5675861 202.241424,62.7891563 C201.935323,63.0107266 201.782481,63.3114768 201.782481,63.6912398 C201.782481,64.1027751 201.914336,64.4350468 202.17813,64.6883058 C202.441757,64.9415647 202.842841,65.0681524 203.380964,65.0681524 C203.824104,65.0681524 204.222178,64.9572837 204.575855,64.7357971 C204.929196,64.5142268 205.200933,64.2715865 205.390899,64.0077926 L205.390899,62.8208451 Z M205.390899,66.365885 L205.390899,65.542898 C205.106034,65.8278456 204.768244,66.0651348 204.37803,66.2550999 C203.987565,66.4449814 203.565411,66.539964 203.111902,66.539964 C202.774112,66.539964 202.433814,66.4897971 202.091091,66.3896306 C201.748117,66.2894642 201.439507,66.1285122 201.165262,65.906942 C200.890766,65.6852882 200.666771,65.3953238 200.492692,65.0365473 C200.318529,64.677938 200.23149,64.2451653 200.23149,63.7387311 C200.23149,63.2745205 200.315853,62.8737711 200.484749,62.5358974 C200.653393,62.1983582 200.885582,61.9187616 201.181064,61.6971078 C201.47638,61.4756212 201.824538,61.3121609 202.225622,61.2065597 C202.626455,61.1012093 203.064411,61.0482833 203.53924,61.0482833 C204.29885,61.0482833 204.916069,61.1538845 205.390899,61.3648361 L205.390899,60.7476167 C205.390899,60.2940248 205.256368,59.9458669 204.987306,59.7030594 C204.718245,59.4604191 204.330539,59.3390153 203.824104,59.3390153 C203.391332,59.3390153 203.003626,59.3813227 202.660903,59.4656866 C202.317845,59.5503014 201.982814,59.6820729 201.655893,59.8612522 L201.022872,58.626897 C201.423705,58.3842567 201.850959,58.1995591 202.304802,58.0729715 C202.75831,57.9463838 203.280547,57.8830063 203.871512,57.8830063 C204.799849,57.8830063 205.5516,58.1125196 206.126846,58.5714626 C206.701758,59.0304893 206.989381,59.7294806 206.989381,60.6685203 L206.989381,66.365885 L205.390899,66.365885 L205.390899,66.365885 Z M214.380044,66.365885 L214.380044,61.6761213 C214.380044,60.8341545 214.230129,60.2446105 213.930884,59.9078237 C213.631722,59.571037 213.214334,59.4023928 212.678636,59.4023928 C212.132402,59.4023928 211.712255,59.5865887 211.418277,59.9549806 C211.124216,60.3235396 210.977311,60.8447731 210.977311,61.5184302 L210.977311,66.365885 L209.33142,66.365885 L209.33142,58.0570853 L210.977311,58.0570853 L210.977311,58.8585842 C211.188262,58.5494728 211.48107,58.3095917 211.855732,58.1390245 C212.230061,57.9683736 212.633653,57.8830063 213.066425,57.8830063 C214.036987,57.8830063 214.772934,58.1943752 215.274185,58.8167785 C215.775184,59.4394326 216.025935,60.3677701 216.025935,61.6022088 L216.025935,66.365885 L214.380044,66.365885 M223.297869,60.6368316 C223.218857,60.3835726 223.100128,60.1620024 222.941852,59.9720373 C222.783659,59.7821558 222.585751,59.6318225 222.348462,59.5210374 C222.111006,59.4102523 221.823466,59.3549015 221.485843,59.3549015 C220.937101,59.3549015 220.501904,59.5368399 220.180167,59.900884 C219.858263,60.2648444 219.660355,60.7792218 219.586694,61.4439325 L223.448286,61.4439325 C223.427049,61.1590684 223.377133,60.8900069 223.297869,60.6368316 Z M225.078374,62.4647441 C225.067756,62.5967665 225.057137,62.704876 225.046686,62.7891563 L219.555089,62.7891563 C219.597145,63.1903239 219.681676,63.5329634 219.808264,63.8179111 C219.934935,64.1027751 220.093128,64.3376396 220.283093,64.5220863 C220.472975,64.7068675 220.683926,64.8440738 220.916115,64.9336216 C221.148053,65.0233367 221.390944,65.0681524 221.644119,65.0681524 C221.992361,65.0681524 222.311255,65.0102933 222.601554,64.8940735 C222.891769,64.7781044 223.17379,64.6146441 223.448286,64.4034417 L224.413747,65.447999 C224.044352,65.7961569 223.632817,66.0651348 223.179308,66.2550999 C222.725549,66.4449814 222.182242,66.539964 221.549137,66.539964 C221.063773,66.539964 220.602071,66.4449814 220.164365,66.2550999 C219.726408,66.0651348 219.343886,65.7857891 219.016966,65.4163103 C218.689794,65.0471659 218.431435,64.5933232 218.24147,64.0552002 C218.051588,63.5171608 217.956606,62.9053762 217.956606,62.2194282 C217.956606,61.512661 218.046153,60.8900069 218.225667,60.3518839 C218.40493,59.8138445 218.653005,59.362761 218.969474,58.9988005 C219.286027,58.6347565 219.668298,58.3578355 220.116874,58.1678704 C220.565198,57.9779889 221.058589,57.8830063 221.596628,57.8830063 C222.187426,57.8830063 222.701804,57.9937915 223.139677,58.2154453 C223.577466,58.4369319 223.94151,58.7376821 224.231642,59.1175287 C224.521857,59.4972917 224.738243,59.9404322 224.880633,60.4468665 C225.023024,60.9533007 225.09426,61.4862398 225.09426,62.0452657 C225.09426,62.1932579 225.088826,62.3329725 225.078374,62.4647441 L225.078374,62.4647441 Z M230.965537,66.1601173 C230.765037,66.2764208 230.53034,66.3683097 230.261278,66.4371219 C229.9923,66.5055997 229.693975,66.539964 229.367138,66.539964 C228.786791,66.539964 228.330523,66.3607011 227.998168,66.0019246 C227.665813,65.6433989 227.499593,65.0894733 227.499593,64.3401479 L227.499593,59.544783 L226.312646,59.544783 L226.312646,58.0570853 L227.499593,58.0570853 L227.499593,55.6831903 L229.098076,54.8285981 L229.098076,58.0570853 L231.155502,58.0570853 L231.155502,59.544783 L229.098076,59.544783 L229.098076,64.0552002 C229.098076,64.4456655 229.163878,64.7096267 229.295901,64.8465822 C229.427756,64.9838721 229.646567,65.0522662 229.952668,65.0522662 C230.163704,65.0522662 230.380006,65.0181528 230.601576,64.9495078 C230.823147,64.8809465 231.007593,64.8045256 231.155502,64.7199945 L230.965537,66.1601173 M237.897508,62.8208451 C237.675937,62.704876 237.414819,62.6150774 237.114069,62.5517836 C236.813402,62.4884897 236.441499,62.456801 235.998358,62.456801 C235.470603,62.456801 235.053967,62.5675861 234.748117,62.7891563 C234.441932,63.0107266 234.28909,63.3114768 234.28909,63.6912398 C234.28909,64.1027751 234.420945,64.4350468 234.684823,64.6883058 C234.948366,64.9415647 235.34945,65.0681524 235.887573,65.0681524 C236.330714,65.0681524 236.728871,64.9572837 237.082464,64.7357971 C237.435805,64.5142268 237.707626,64.2715865 237.897508,64.0077926 L237.897508,62.8208451 Z M237.897508,66.365885 L237.897508,65.542898 C237.612644,65.8278456 237.274853,66.0651348 236.884639,66.2550999 C236.494174,66.4449814 236.072103,66.539964 235.618512,66.539964 C235.280805,66.539964 234.940423,66.4897971 234.597784,66.3896306 C234.254726,66.2894642 233.9462,66.1285122 233.671871,65.906942 C233.397375,65.6852882 233.17338,65.3953238 232.999301,65.0365473 C232.825222,64.677938 232.738182,64.2451653 232.738182,63.7387311 C232.738182,63.2745205 232.822463,62.8737711 232.991358,62.5358974 C233.160002,62.1983582 233.392274,61.9187616 233.687757,61.6971078 C233.982989,61.4756212 234.331147,61.3121609 234.732231,61.2065597 C235.133064,61.1012093 235.57102,61.0482833 236.045849,61.0482833 C236.805459,61.0482833 237.422762,61.1538845 237.897508,61.3648361 L237.897508,60.7476167 C237.897508,60.2940248 237.762977,59.9458669 237.493915,59.7030594 C237.224937,59.4604191 236.837148,59.3390153 236.330714,59.3390153 C235.898024,59.3390153 235.510235,59.3813227 235.167428,59.4656866 C234.824538,59.5503014 234.489423,59.6820729 234.162503,59.8612522 L233.529397,58.626897 C233.930314,58.3842567 234.357652,58.1995591 234.811327,58.0729715 C235.264919,57.9463838 235.787156,57.8830063 236.378205,57.8830063 C237.306459,57.8830063 238.058209,58.1125196 238.633372,58.5714626 C239.208367,59.0304893 239.49599,59.7294806 239.49599,60.6685203 L239.49599,66.365885 L237.897508,66.365885 L237.897508,66.365885 Z M246.364333,59.7821558 C246.184819,59.6871732 246.000372,59.6135116 245.810407,59.5606692 C245.620526,59.507994 245.388253,59.4814892 245.114092,59.4814892 C244.597039,59.4814892 244.196206,59.6610029 243.911258,60.0196122 C243.626394,60.3783887 243.484004,60.9113278 243.484004,61.6180114 L243.484004,66.365885 L241.83803,66.365885 L241.83803,58.0570853 L243.484004,58.0570853 L243.484004,58.8484672 C243.673885,58.5742218 243.935087,58.3447085 244.267359,58.1600109 C244.599714,57.9755642 244.971618,57.8830063 245.383153,57.8830063 C245.720692,57.8830063 245.997613,57.9122703 246.214,57.9700458 C246.430135,58.0281557 246.62311,58.1151952 246.792005,58.2311642 L246.364333,59.7821558 M248.532795,66.365885 L250.178267,66.365885 L250.178267,58.0570853 L248.532795,58.0570853 L248.532795,66.365885 Z M250.091311,56.6723968 C249.885627,56.8780809 249.640646,56.9809229 249.355531,56.9809229 C249.060383,56.9809229 248.809548,56.8780809 248.603864,56.6723968 C248.39818,56.4666292 248.295338,56.2212297 248.295338,55.9364492 C248.295338,55.6412174 248.39818,55.3904668 248.603864,55.1846991 C248.809548,54.9789314 249.060383,54.8760058 249.355531,54.8760058 C249.640646,54.8760058 249.885627,54.9789314 250.091311,55.1846991 C250.296995,55.3904668 250.399837,55.6412174 250.399837,55.9364492 C250.399837,56.2212297 250.296995,56.4666292 250.091311,56.6723968 L250.091311,56.6723968 Z M257.632224,66.365885 L257.632224,65.5644697 C257.421523,65.8734974 257.128883,66.1134622 256.754304,66.2841131 C256.379725,66.4546803 255.975882,66.539964 255.543611,66.539964 C254.572883,66.539964 253.837102,66.2288459 253.335434,65.6061918 C252.834601,64.9838721 252.583767,64.0552002 252.583767,62.8208451 L252.583767,58.0570853 L254.230076,58.0570853 L254.230076,62.746849 C254.230076,63.5891503 254.37974,64.1786943 254.679069,64.5153974 C254.978398,64.8522678 255.395619,65.0206611 255.931568,65.0206611 C256.47755,65.0206611 256.89728,64.8364652 257.191592,64.4679897 C257.485904,64.0995143 257.632224,63.578448 257.632224,62.9047073 L257.632224,58.0570853 L259.278532,58.0570853 L259.278532,66.365885 L257.632224,66.365885 M271.353691,66.365885 L271.353691,61.6761213 C271.353691,60.8341545 271.221585,60.2446105 270.958209,59.9078237 C270.693997,59.571037 270.293499,59.4023928 269.755041,59.4023928 C269.206551,59.4023928 268.802707,59.5865887 268.544348,59.9549806 C268.285989,60.3235396 268.157227,60.8447731 268.157227,61.5184302 L268.157227,66.365885 L266.510919,66.365885 L266.510919,61.6761213 C266.510919,60.8341545 266.378813,60.2446105 266.115437,59.9078237 C265.851225,59.571037 265.450726,59.4023928 264.912269,59.4023928 C264.363778,59.4023928 263.959935,59.5865887 263.701576,59.9549806 C263.443216,60.3235396 263.314455,60.8447731 263.314455,61.5184302 L263.314455,66.365885 L261.668146,66.365885 L261.668146,58.0570853 L263.314455,58.0570853 L263.314455,58.8585842 C263.525156,58.5494728 263.800237,58.3095917 264.138863,58.1390245 C264.47749,57.9683736 264.863774,57.8830063 265.297717,57.8830063 C265.867947,57.8830063 266.336171,57.9871025 266.701553,58.1948769 C267.066099,58.4028184 267.359575,58.7095051 267.581981,59.1145187 C267.729973,58.9226305 267.886326,58.7523141 268.050205,58.6028169 C268.214919,58.453487 268.397192,58.3256451 268.598696,58.2188734 C268.800199,58.1122688 269.025114,58.0296607 269.274276,57.9710492 C269.522602,57.9125212 269.811061,57.8830063 270.139654,57.8830063 C271.114563,57.8830063 271.834457,58.1943752 272.301009,58.8167785 C272.766724,59.4394326 273,60.3677701 273,61.6022088 L273,66.365885 L271.353691,66.365885 M195.245574,80.05349 C194.585546,79.4595982 193.686556,79.1626105 192.548103,79.1626105 L188.241949,79.1626105 L188.241949,85.8446667 L192.647099,85.8446667 C193.950183,85.8446667 194.874423,85.5478462 195.418817,84.9533691 C195.963295,84.3597282 196.235533,83.5676773 196.235533,82.5778019 C196.235533,81.488847 195.905268,80.6474654 195.245574,80.05349 Z M194.725929,72.7621575 C194.263809,72.2776294 193.546172,72.0352399 192.572852,72.0352399 L188.241949,72.0352399 L188.241949,77.4054332 L192.424358,77.4054332 C193.496675,77.4054332 194.263809,77.1387128 194.725929,76.6050212 C195.187632,76.0714132 195.418817,75.4267693 195.418817,74.6712567 C195.418817,73.8831356 195.187632,73.2466855 194.725929,72.7621575 Z M196.718138,86.3254323 C195.752928,87.1765964 194.354695,87.6013423 192.523354,87.6013423 L186.311612,87.6013423 L186.311612,70.2780626 L192.647099,70.2780626 C193.339987,70.2780626 193.971086,70.364684 194.540312,70.5375924 C195.109539,70.7108353 195.604434,70.9741276 196.025167,71.3283891 C196.4459,71.682567 196.771482,72.1310586 197.002752,72.6743655 C197.233519,73.2180904 197.349154,73.8603933 197.349154,74.6011903 C197.349154,75.556367 197.117968,76.3180669 196.656266,76.8861228 C196.194146,77.4545967 195.59206,77.8703126 194.849674,78.1336049 C195.245574,78.2330189 195.641558,78.3856933 196.037542,78.5922135 C196.433525,78.79865 196.788121,79.0713068 197.101664,79.4100166 C197.414872,79.74881 197.67089,80.1702951 197.868882,80.6741375 C198.066874,81.1783142 198.16587,81.7773063 198.16587,82.4710302 C198.16587,84.1891609 197.683265,85.4742682 196.718138,86.3254323 L196.718138,86.3254323 Z M209.107676,77.2013378 C208.41713,76.3474981 207.504177,75.9206619 206.36957,75.9206619 C205.23513,75.9206619 204.326358,76.3474981 203.643922,77.2013378 C202.961402,78.0550938 202.620351,79.3442981 202.620351,81.0681144 C202.620351,82.7919307 202.961402,84.0938439 203.643922,84.9717637 C204.326358,85.8505195 205.23513,86.2903155 206.36957,86.2903155 C207.504177,86.2903155 208.41713,85.8505195 209.107676,84.9717637 C209.79839,84.0938439 210.143705,82.7919307 210.143705,81.0681144 C210.143705,79.3442981 209.79839,78.0550938 209.107676,77.2013378 Z M211.579062,83.9508684 C211.282074,84.8011964 210.877562,85.5185822 210.366362,86.1046982 C209.854828,86.689978 209.252742,87.1314462 208.559771,87.4282667 C207.866883,87.7250872 207.124414,87.8739155 206.33253,87.8739155 C205.540563,87.8739155 204.802023,87.7292678 204.11758,87.4408084 C203.432719,87.1523491 202.843092,86.7225865 202.348112,86.1540289 C201.853133,85.5846352 201.461079,84.878955 201.17262,84.0378243 C200.883742,83.1964427 200.739512,82.2231223 200.739512,81.117696 C200.739512,80.0125204 200.888006,79.038782 201.184994,78.1974004 C201.481898,77.3560189 201.885992,76.6506731 202.39761,76.0814466 C202.90881,75.5123038 203.511231,75.0791967 204.204202,74.782209 C204.897173,74.4853049 205.639559,74.3367274 206.431526,74.3367274 C207.22341,74.3367274 207.961615,74.477111 208.646392,74.75746 C209.330835,75.0382271 209.920964,75.4588761 210.41586,76.0195742 C210.91084,76.5806903 211.302559,77.2778422 211.591437,78.110779 C211.879896,78.9441339 212.02446,79.9134409 212.02446,81.0186164 C212.02446,82.12421 211.875966,83.101711 211.579062,83.9508684 L211.579062,83.9508684 Z M223.383655,77.232274 C222.904896,76.8034311 222.430819,76.4774302 221.960672,76.2547731 C221.490442,76.0320323 220.925061,75.9206619 220.265367,75.9206619 C219.753833,75.9206619 219.279338,76.0327012 218.842385,76.2561944 C218.405097,76.4801058 218.025752,76.8119595 217.704016,77.2512538 C217.382279,77.6904645 217.130609,78.225243 216.949172,78.8551713 C216.767484,79.4850161 216.676933,80.2061644 216.676933,81.0181984 C216.676933,82.6265474 216.99867,83.9073905 217.642143,84.8605605 C218.285617,85.8137305 219.184606,86.2903155 220.339614,86.2903155 C220.966449,86.2903155 221.510926,86.1665706 221.973047,85.9190809 C222.434665,85.6715911 222.888675,85.3329649 223.334157,84.9040384 L224.447777,86.0921565 C223.9033,86.6465001 223.300796,87.0821155 222.641185,87.3981666 C221.981157,87.7150538 221.18919,87.8739155 220.265367,87.8739155 C219.555841,87.8739155 218.87098,87.7376289 218.211286,87.4650557 C217.551258,87.1933187 216.969657,86.7769339 216.46665,86.2159014 C215.963143,85.6548688 215.559049,84.9575497 215.253951,84.1247801 C214.948518,83.2915925 214.796178,82.3055632 214.796178,81.1671939 C214.796178,79.9630225 214.960893,78.9316758 215.291074,78.0736555 C215.620921,77.2160534 216.049764,76.5107076 216.578021,75.9577017 C217.105776,75.405114 217.704016,74.9968395 218.372238,74.732711 C219.040377,74.4690007 219.712445,74.3367274 220.389112,74.3367274 C221.280075,74.3367274 222.059585,74.479034 222.727807,74.7633128 C223.395946,75.0478424 223.98574,75.4089601 224.497275,75.8475019 L223.383655,77.232274 M235.930717,87.6013423 L235.930717,79.9877714 C235.930717,78.5825146 235.679715,77.5535926 235.178632,76.9004203 C234.677465,76.2474152 233.909076,75.9206619 232.874051,75.9206619 C231.969877,75.9206619 231.2101,76.2430675 230.593717,76.8881294 C229.977334,77.5331078 229.669477,78.5662939 229.669477,79.9877714 L229.669477,87.6013423 L227.788638,87.6013423 L227.788638,70.5998829 L229.669477,69.5604259 L229.669477,76.192817 C230.048821,75.6484231 230.535691,75.2029416 231.129582,74.8564559 C231.723642,74.5099703 232.43275,74.3367274 233.257911,74.3367274 C233.950882,74.3367274 234.577717,74.4400711 235.138749,74.6460896 C235.699447,74.8526098 236.178206,75.1743465 236.574106,75.6112161 C236.970174,76.0485873 237.275188,76.6011751 237.489818,77.2693138 C237.704031,77.9376198 237.811555,78.7418779 237.811555,79.6822554 L237.811555,87.6013423 L235.930717,87.6013423 M249.937466,87.6013423 L249.937466,86.0177423 C249.55787,86.5620526 249.071252,87.0077014 248.477611,87.3538526 C247.883134,87.7008399 247.174109,87.8739155 246.349199,87.8739155 C245.656228,87.8739155 245.029059,87.7702374 244.468277,87.5645533 C243.907245,87.3580331 243.428904,87.0369653 243.03292,86.5996777 C242.636936,86.1623901 242.331504,85.6097187 242.117208,84.9408274 C241.902661,84.2727723 241.795555,83.4686814 241.795555,82.528304 L241.795555,74.6089662 L243.676393,74.6089662 L243.676393,82.2227879 C243.676393,83.6281284 243.926977,84.6573848 244.42806,85.3103898 C244.929227,85.9633949 245.697616,86.2903155 246.733477,86.2903155 C247.63648,86.2903155 248.396508,85.9675755 249.012724,85.3229315 C249.629776,84.6774515 249.937466,83.6448507 249.937466,82.2227879 L249.937466,74.6089662 L251.818723,74.6089662 L251.818723,87.6013423 L249.937466,87.6013423 M271.096168,87.6013423 L271.096168,79.9877714 C271.096168,78.4997393 270.865401,77.4499981 270.403866,76.8382134 C269.941495,76.2265124 269.239995,75.9206619 268.300203,75.9206619 C267.425628,75.9206619 266.724128,76.2388033 266.19654,76.8752533 C265.668116,77.5118705 265.40474,78.5493208 265.40474,79.9877714 L265.40474,87.6013423 L263.523483,87.6013423 L263.523483,79.9877714 C263.523483,78.4997393 263.284355,77.4499981 262.806098,76.8382134 C262.327004,76.2265124 261.634702,75.9206619 260.727518,75.9206619 C259.83622,75.9206619 259.13054,76.2388033 258.611313,76.8752533 C258.09125,77.5118705 257.832055,78.5493208 257.832055,79.9877714 L257.832055,87.6013423 L255.950798,87.6013423 L255.950798,74.6089662 L257.832055,74.6089662 L257.832055,76.192817 C258.16232,75.6321189 258.600444,75.1823732 259.146426,74.8440814 C259.691573,74.5061241 260.352939,74.3367274 261.130525,74.3367274 C262.056103,74.3367274 262.804425,74.5513579 263.375491,74.9801172 C263.945721,75.4093781 264.388025,75.9372169 264.702404,76.5640516 C264.901399,76.2508433 265.116281,75.9577017 265.34872,75.685463 C265.580324,75.4132243 265.853733,75.1781926 266.168948,74.9801172 C266.483327,74.782209 266.843692,74.6256048 267.249208,74.5099703 C267.655559,74.3947537 268.122947,74.3367274 268.653043,74.3367274 C269.978284,74.3367274 271.030115,74.7536139 271.809374,75.5864671 C272.587796,76.419822 272.977425,77.7851962 272.977425,79.6822554 L272.977425,87.6013423 L271.096168,87.6013423" transform="translate(-163)"/></svg>